inDegrees=yes
name=ik_Xsens
DataType=double
version=3
OpenSimVersion=4.4-2022-07-23-0e9fedc
endheader
time	pelvis_tilt	pelvis_list	pelvis_rotation	pelvis_tx	pelvis_ty	pelvis_tz	hip_flexion_r	hip_adduction_r	hip_rotation_r	knee_angle_r	knee_angle_r_beta	ankle_angle_r	subtalar_angle_r	mtp_angle_r	hip_flexion_l	hip_adduction_l	hip_rotation_l	knee_angle_l	knee_angle_l_beta	ankle_angle_l	subtalar_angle_l	mtp_angle_l	lumbar_extension	lumbar_bending	lumbar_rotation	arm_flex_r	arm_add_r	arm_rot_r	elbow_flex_r	pro_sup_r	wrist_flex_r	wrist_dev_r	arm_flex_l	arm_add_l	arm_rot_l	elbow_flex_l	pro_sup_l	wrist_flex_l	wrist_dev_l
0	0	0	0	0	0.93	0	0	0	0	0	0	0	0	0	0	0	0	0	0	0	0	0	0	0	0	0	0	0	0	0	0	0	0	0	0	0	0	0	0
0.01666666666666667	9.936356131091444e-32	-7.365544905085272e-24	2.432675628832675e-31	1.161930505273401e-24	0.93	1.17799080846734e-24	-1.934365385475434e-39	-7.857321164598367e-23	-1.802431820447282e-41	2.997807743156592e-07	5.232161546037225e-09	-6.668556547462529e-17	2.185599633175197e-15	-2.381270773606466e-23	-7.103630448424475e-32	-5.38932106313244e-31	1.894111261474333e-21	2.997807743156584e-07	5.23216154603721e-09	2.778083144736069e-17	1.491410903245485e-18	2.23083782003009e-23	1.693935660334945e-21	2.058817752287329e-20	-2.236953048579229e-23	-0.7547077256924396	0.8620393249153279	0.8241595604352254	-0.3539291853619737	0.148172018586671	-2.51113414698642e-24	-3.055269602468112e-22	-1.493480108407444	1.2373319465002	0.4211117428491374	-0.2101111473995909	0.5038191631112432	-4.603343918266008e-23	1.096118924209686e-21
0.03333333333333333	-1.001752165790657e-24	2.971266820384397e-16	-9.782364299711253e-25	1.586815164713244e-21	0.93	1.179400484826676e-22	2.375321933458794e-30	-1.537896386085031e-20	-7.149812532507971e-45	6.41383773529612e-15	1.119425864571924e-16	-5.193316868672563e-21	2.022910728516074e-19	-9.862766759199501e-15	8.285033346874389e-22	-8.542783734812655e-32	-5.257700908942979e-21	6.419668755862447e-15	1.120331365451527e-16	-4.010881871456551e-20	4.67885409397609e-14	1.955437855081785e-15	-1.069649771162291e-24	-3.597090826253706e-17	-3.932708936022412e-24	-1.53272019306321	1.743213225728894	1.492418577439282	-0.5255894223490065	0.2624049458217153	-3.682361868857729e-18	-5.043863490469459e-17	-3.042859485047152	2.270650692890862	0.9785307923074111	0.1963545593487989	0.8354250674066011	-5.368350295096477e-20	-9.643379741734722e-18
0.05	-7.773504627343978e-26	5.347957917059719e-18	3.324697158391422e-27	6.214022695671644e-21	0.93	-2.126482738630561e-22	5.21330580218547e-34	-6.573444438014152e-34	-7.774794639736684e-25	6.319842767403329e-15	1.103002560099088e-16	-7.493261532213689e-19	-5.500980603535982e-20	-9.061687741987101e-19	-1.991910460614344e-15	-1.33472956849696e-16	6.89937011824702e-17	6.319842767673766e-15	1.102228671890708e-16	1.630937544439401e-18	3.122388237141944e-20	-5.039001749759321e-19	-1.133465429573842e-17	1.07347477311067e-17	-5.686252906764684e-17	-2.319590323515077	2.654227304121362	2.060946624417069	-0.531335846253056	0.4711110220241759	5.973440626494773e-19	2.097131144903692e-19	-4.684111055459023	3.212083333727814	1.640209792415535	1.135758896943033	1.037703114255977	-4.82508302833068e-19	7.749293968161072e-21
0.06666666666666667	0	0	0	0	0.93	0	0	0	0	0	-1.109197049565442e-40	0	0	0	0	0	0	0	4.193654882081263e-41	0	0	0	0	0	0	-3.130643152248013	3.648220194801604	2.746595226864361	-0.4883206971605584	0.7202763050831458	0	0	-6.399497138986189	4.183844491823915	2.134703264396584	2.356253294631599	1.398729077959302	0	0
0.08333333333333333	0	0	0	0	0.93	0	0	0	0	9.609043894684585e-39	-1.908420879855298e-41	0	0	0	0	0	0	9.609043894684585e-39	-4.989894733717858e-41	0	0	0	0	0	0	-3.957674768107037	4.664786428584575	3.518629447927583	-0.4394716949053568	0.9886633858128533	0	0	-8.126429278646562	5.230330937822115	2.446187560510316	3.596900242232247	1.86461876690245	0	0
0.1	0	0	0	0	0.93	0	0	0	0	0	-1.908420879855298e-41	0	0	0	0	0	0	0	4.193654882081263e-41	0	0	0	0	0	0	-4.812260122993777	5.648970183312374	4.41013198117919	-0.2856210539333631	1.299942258171038	0	0	-9.802151289272858	6.324912590827853	2.805821590185262	4.763869385042373	2.035132971162981	0	0
0.1166666666666667	-1.944885514453206e-28	7.518447474344141e-17	2.945950202107025e-28	1.326533478456254e-25	0.93	8.208456953196394e-24	-2.837244938060428e-33	-2.437569478031937e-21	-7.748431761958433e-34	8.226802952622173e-08	1.435847984365812e-09	4.725021083956934e-20	2.862908750466537e-22	4.78806055519275e-18	-2.866609436588197e-21	-1.09545244206661e-32	-4.644386027449093e-20	8.226802951959679e-08	1.435847219549712e-09	3.25908049414382e-21	5.600347048181608e-27	-5.879101126874153e-19	-6.116392962984912e-29	-9.116811976245182e-19	-1.05175275910966e-28	-5.65742410079723	6.600896904951256	5.472233838834285	0.02246560482997122	1.656550854064475	-2.026073263491376e-20	-1.098006381860531e-18	-11.39156379993767	7.396608303805511	3.34381351050998	5.856364657799329	1.733310518802764	2.556452521568981e-22	-2.545824379571168e-20
0.1333333333333333	0	0	0	0	0.93	0	0	0	0	0	0	0	0	0	0	0	0	0	0	0	0	0	0	0	0	-6.421272526828035	7.525673311772161	6.706814395876679	0.4075178918448191	1.931583524478336	0	0	-12.87607893061103	8.436519481887007	3.978320105299435	6.821481650988535	1.241791935097147	0	0
0.15	0	0	0	0	0.93	0	0	0	0	0	0	0	0	0	0	0	0	0	0	0	0	0	0	0	0	-7.089359677717351	8.415155996252373	8.077386464781192	0.8558548830750353	2.16438207655447	0	0	-14.26552548230538	9.460714428535189	4.606940819273773	7.651674419367398	0.7951990948981665	0	0
